<svg width="15" height="23" viewBox="0 0 15 23" fill="none" xmlns="http://www.w3.org/2000/svg">
<path fill-rule="evenodd" clip-rule="evenodd" d="M8.56342 0.00743459C9.09239 0.0748695 9.4803 0.584503 9.44568 1.16653C9.33585 3.0129 9.71793 5.27418 10.5649 7.09237C11.4164 8.92028 12.6266 10.0929 14.0947 10.246C14.5247 10.2909 14.8797 10.6329 14.9752 11.0942C15.0707 11.5555 14.885 12.0318 14.5147 12.2753C12.7072 13.464 11.5437 14.7929 10.7799 16.3306C10.009 17.8827 9.6078 19.7223 9.43414 21.996C9.38904 22.5866 8.92324 23.0307 8.38297 22.9983C7.8427 22.9659 7.42395 22.4688 7.43797 21.8764C7.51185 18.7552 6.3776 15.7294 3.97618 13.9192C3.11692 13.2714 2.06475 13.0094 0.824293 12.7669C0.320858 12.6685 -0.0336512 12.1699 0.00253871 11.6112C0.0387285 11.0525 0.453955 10.6137 0.965035 10.5941C3.04408 10.5144 4.46181 9.28933 5.48841 7.45054C6.5367 5.57289 7.12006 3.13726 7.46167 0.913596C7.55003 0.338424 8.03445 -0.0600004 8.56342 0.00743459ZM4.46587 11.6903C4.68481 11.8159 4.90021 11.9566 5.11009 12.1148C6.6571 13.2809 7.76859 14.8278 8.47804 16.5529C8.63797 16.118 8.81882 15.6951 9.02309 15.2838C9.69117 13.9388 10.5914 12.7557 11.7744 11.7024C10.4576 10.9033 9.46681 9.55501 8.78337 8.08784C8.54322 7.57231 8.33476 7.03039 8.15815 6.47401C7.88579 7.2102 7.5676 7.9253 7.19469 8.59325C6.50379 9.83075 5.60958 10.9284 4.46587 11.6903Z" fill="#FD6480"/>
</svg>
