<svg width="40" height="40" viewBox="0 0 40 40" fill="none" xmlns="http://www.w3.org/2000/svg">
<path fill-rule="evenodd" clip-rule="evenodd" d="M6.5 27.9999C6.22386 27.9999 6 27.7761 6 27.4999V12.5C6 12.2239 6.22386 12 6.5 12H14.2008C16.8349 12 18.9703 13.9259 18.9703 16.3017C18.9703 17.5224 18.6338 18.3675 17.5073 19.1535C17.1566 19.3982 17.1783 19.9686 17.5454 20.188C19.0142 21.066 19.4539 22.2122 19.4539 23.7144C19.4539 26.1415 17.0633 27.9999 14.3724 27.9999H6.5ZM9.97023 14.6485C9.69409 14.6485 9.47023 14.8724 9.47023 15.1485V17.9959C9.47023 18.2721 9.69409 18.4959 9.97023 18.4959H13.5318C13.5318 18.4959 13.5318 18.4959 13.5318 18.4959C13.5318 18.4959 15.5058 18.4959 15.5058 16.5722C15.5058 14.6485 13.5318 14.6485 13.5318 14.6485C13.5318 14.6485 13.5318 14.6485 13.5318 14.6485H9.97023ZM9.97023 25.2902C9.69409 25.2902 9.47023 25.0664 9.47023 24.7902V21.6359C9.47023 21.3597 9.69409 21.1359 9.97023 21.1359H13.8268C14.5302 21.1359 16.005 21.4633 16.005 23.4279C16.005 24.885 14.5528 25.2766 13.8268 25.2902H9.97023Z" fill="black"/>
<path fill-rule="evenodd" clip-rule="evenodd" d="M26.8736 16.1099C24.3777 16.1099 20.6792 17.7266 20.6792 22.0243C20.6792 24.6411 22.2675 28 27.0325 28C30.2833 28 32.038 26.1644 32.7327 24.8413C32.89 24.5417 32.6549 24.214 32.3166 24.214H29.781C29.5631 24.214 29.3765 24.3611 29.2539 24.5413C28.9386 25.0045 28.2465 25.4214 27.0325 25.4214C25.2689 25.4214 24.4275 24.3215 24.1108 23.4574C24.0066 23.1731 24.2387 22.9043 24.5414 22.9043H33V22.0243C33 17.7266 29.3696 16.1099 26.8736 16.1099ZM26.8736 18.5657C25.2703 18.5657 24.4648 19.5076 24.1365 20.2772C24.0158 20.5601 24.2479 20.8373 24.5555 20.8373H28.9149C29.1911 20.8373 29.4174 20.6109 29.3536 20.3422C29.1684 19.5618 28.5225 18.5657 26.8736 18.5657Z" fill="black"/>
<path d="M23.0398 12.6104C22.7637 12.6104 22.5398 12.8343 22.5398 13.1104V14.0955C22.5398 14.3717 22.7637 14.5955 23.0398 14.5955H30.594C30.8702 14.5955 31.094 14.3717 31.094 14.0955V13.1104C31.094 12.8343 30.8702 12.6104 30.594 12.6104H23.0398Z" fill="black"/>
</svg>
