<svg width="40" height="40" viewBox="0 0 40 40" fill="none" xmlns="http://www.w3.org/2000/svg">
<path d="M14.5835 12.1756C14.5835 13.3772 13.5575 14.3512 12.2918 14.3512C11.0261 14.3512 10 13.3772 10 12.1756C10 10.9741 11.0261 10 12.2918 10C13.5575 10 14.5835 10.9741 14.5835 12.1756Z" fill="black"/>
<path d="M10.3134 16.4504C10.3134 16.1743 10.5373 15.9504 10.8134 15.9504H13.7309C14.0071 15.9504 14.2309 16.1743 14.2309 16.4504V27.5C14.2309 27.7761 14.0071 28 13.7309 28H10.8134C10.5373 28 10.3134 27.7761 10.3134 27.5V16.4504Z" fill="black"/>
<path d="M20.5381 16.3443C20.5381 16.1268 20.3618 15.9504 20.1442 15.9504H17.1206C16.8445 15.9504 16.6206 16.1743 16.6206 16.4504V27.5C16.6206 27.7761 16.8445 28 17.1206 28H20.0381C20.3143 28 20.5381 27.7766 20.5381 27.5005C20.5381 26.3928 20.5381 23.6825 20.5381 21.8348C20.5381 20.4112 21.017 18.9814 22.9278 18.9814C25.0873 18.9814 25.0743 20.8444 25.0642 22.2877C25.0522 24.009 25.0773 25.7625 25.0818 27.5C25.0825 27.7762 25.3063 28 25.5825 28H28.5C28.7761 28 29 27.7761 29 27.5V21.6405C28.9668 17.5798 27.9244 15.7087 24.4948 15.7087C23.1072 15.7087 22.079 16.1443 21.3566 16.6906C21.0571 16.917 20.5381 16.7198 20.5381 16.3443V16.3443Z" fill="black"/>
</svg>
