<svg width="40" height="40" viewBox="0 0 40 40" fill="none" xmlns="http://www.w3.org/2000/svg">
<path d="M14.5835 12.1756C14.5835 13.3772 13.5575 14.3512 12.2918 14.3512C11.0261 14.3512 10 13.3772 10 12.1756C10 10.9741 11.0261 10 12.2918 10C13.5575 10 14.5835 10.9741 14.5835 12.1756Z" fill="black"/>
<path d="M10.3134 15.9504H14.2309V28H10.3134V15.9504Z" fill="black"/>
<path d="M20.5381 15.9504H16.6206V28H20.5381C20.5381 28 20.5381 24.2066 20.5381 21.8348C20.5381 20.4112 21.017 18.9814 22.9278 18.9814C25.0873 18.9814 25.0743 20.8444 25.0642 22.2877C25.0511 24.1743 25.0825 26.0995 25.0825 28H29V21.6405C28.9668 17.5798 27.9244 15.7087 24.4948 15.7087C22.4582 15.7087 21.1957 16.6472 20.5381 17.4963V15.9504Z" fill="black"/>
</svg>
