<svg width="40" height="40" viewBox="0 0 40 40" fill="none" xmlns="http://www.w3.org/2000/svg">
<path fill-rule="evenodd" clip-rule="evenodd" d="M6 27.9999V11.9999H14.2008C16.8349 11.9999 18.9703 13.9259 18.9703 16.3017C18.9703 17.8114 18.4556 18.7466 16.5684 19.7059C18.8267 20.634 19.4539 21.9203 19.4539 23.7144C19.4539 26.1415 17.0633 27.9999 14.3724 27.9999H6ZM9.47023 14.6485V18.4959H13.5318C13.5318 18.4959 15.5058 18.4959 15.5058 16.5722C15.5058 14.6485 13.5318 14.6485 13.5318 14.6485H9.47023ZM9.47023 25.2902V21.1359H13.8268C14.5302 21.1359 16.005 21.4633 16.005 23.4279C16.005 24.885 14.5528 25.2766 13.8268 25.2902H9.47023Z" fill="black"/>
<path fill-rule="evenodd" clip-rule="evenodd" d="M26.8736 16.1099C24.3777 16.1099 20.6792 17.7266 20.6792 22.0242C20.6792 24.6411 22.2675 28 27.0325 28C30.8444 28 32.5991 25.476 33 24.214H29.4149C29.2334 24.787 28.53 25.4214 27.0325 25.4214C24.8542 25.4214 24.0827 23.7433 23.9693 22.9042H33V22.0242C33 17.7266 29.3696 16.1099 26.8736 16.1099ZM26.8736 18.5657C24.8406 18.5657 24.0903 20.0801 23.9693 20.8373H29.4149C29.4149 20.0801 28.9067 18.5657 26.8736 18.5657Z" fill="black"/>
<path d="M22.5398 12.6104V14.5955H31.094V12.6104H22.5398Z" fill="black"/>
</svg>
