<svg width="15" height="40" viewBox="0 0 15 40" fill="none" xmlns="http://www.w3.org/2000/svg">
<path fill-rule="evenodd" clip-rule="evenodd" d="M8.56342 8.00743C9.09239 8.07487 9.4803 8.5845 9.44568 9.16653C9.33585 11.0129 9.71793 13.2742 10.5649 15.0924C11.4164 16.9203 12.6266 18.0929 14.0947 18.246C14.5246 18.2908 14.8797 18.6329 14.9752 19.0942C15.0707 19.5555 14.885 20.0318 14.5147 20.2753C12.7072 21.464 11.5437 22.7929 10.7799 24.3306C10.009 25.8827 9.6078 27.7223 9.43414 29.996C9.38904 30.5866 8.92324 31.0307 8.38297 30.9983C7.8427 30.9659 7.42395 30.4688 7.43797 29.8764C7.51185 26.7552 6.3776 23.7294 3.97618 21.9192C3.11692 21.2714 2.06475 21.0094 0.824293 20.7669C0.320858 20.6685 -0.0336511 20.1699 0.00253871 19.6112C0.0387285 19.0525 0.453955 18.6137 0.965035 18.5941C3.04408 18.5144 4.46181 17.2893 5.48841 15.4505C6.5367 13.5729 7.12006 11.1373 7.46167 8.9136C7.55003 8.33842 8.03445 7.94 8.56342 8.00743ZM4.46587 19.6902C4.68481 19.8159 4.90021 19.9566 5.11009 20.1148C6.6571 21.2809 7.76859 22.8278 8.47803 24.5529C8.63797 24.118 8.81882 23.6951 9.02309 23.2838C9.69117 21.9388 10.5914 20.7557 11.7744 19.7024C10.4576 18.9033 9.46681 17.555 8.78337 16.0878C8.54322 15.5723 8.33475 15.0304 8.15815 14.474C7.88579 15.2102 7.5676 15.9253 7.19469 16.5932C6.50379 17.8307 5.60958 18.9284 4.46587 19.6902Z" fill="#FD6480"/>
</svg>
