<svg width="26" height="28" viewBox="0 0 26 28" fill="none" xmlns="http://www.w3.org/2000/svg">
<path fill-rule="evenodd" clip-rule="evenodd" d="M14.0063 2.77972C13.4439 2.87239 13.1366 3.08539 12.9697 3.33582C12.5469 3.97019 11.8334 4.48744 11.19 4.82391C10.5623 5.15222 9.68116 5.47662 8.83373 5.39809C7.58998 5.28284 6.27107 6.28792 6.00067 7.58473C5.87944 8.16609 5.97666 8.80355 6.45657 9.43026C6.9542 10.0801 7.93847 10.8101 9.75005 11.3518C10.5336 11.586 11.2195 12.0853 11.6751 12.7522C12.4586 13.899 13.1946 14.523 13.8198 14.8482C14.4283 15.1647 14.9981 15.2337 15.5423 15.162C16.7106 15.0081 17.8717 14.1855 18.771 13.3101C19.4167 12.6815 20.2648 12.4181 20.8109 12.2591C20.9553 12.217 21.0843 12.1805 21.2007 12.1476C21.6304 12.0259 21.8878 11.953 22.1065 11.8326C22.308 11.7216 22.709 11.2322 22.7098 10.3682C22.7105 9.59462 22.3659 8.6189 21.2662 7.77693C20.3265 7.05746 19.8397 5.95766 19.5429 5.28695L19.5319 5.26229C19.3643 4.88361 18.9712 4.42258 18.3298 3.9762C17.7027 3.53974 16.9254 3.17929 16.1296 2.96067C15.3261 2.73994 14.582 2.68484 14.0063 2.77972ZM19.9452 1.74601C20.8343 2.36485 21.6527 3.18221 22.0915 4.17336C22.4307 4.93946 22.678 5.38731 22.9837 5.62134C24.7498 6.97351 25.5014 8.74012 25.5 10.3706C25.4986 11.9107 24.7991 13.4871 23.4729 14.2173C22.9397 14.5109 22.2846 14.6921 21.8358 14.8163C21.7509 14.8398 21.6734 14.8612 21.6055 14.881C21.0474 15.0435 20.8337 15.1568 20.7371 15.2508C19.7189 16.242 18.0106 17.5966 15.9139 17.8728C14.8256 18.0162 13.6641 17.8635 12.512 17.2643C11.3767 16.6738 10.3228 15.6881 9.35678 14.2741C9.25877 14.1307 9.10406 14.0182 8.93599 13.9679C6.75104 13.3146 5.18218 12.3221 4.2251 11.0723C3.25028 9.79925 2.99117 8.3597 3.26698 7.03698C3.79064 4.52564 6.27921 2.41411 9.09619 2.67507L9.09724 2.67496C9.10838 2.67476 9.18463 2.67339 9.33381 2.63196C9.49255 2.58788 9.68112 2.513 9.87661 2.41075C10.3079 2.18516 10.5691 1.93693 10.6338 1.83988C11.3392 0.781493 12.4426 0.26386 13.5437 0.0824179C14.6313 -0.0968123 15.8032 0.0304906 16.8825 0.326996C17.9696 0.625615 19.0418 1.11725 19.9452 1.74601ZM7.88141 21.2703C6.44428 20.7883 4.25737 21.1294 3.26961 22.1175C3.10657 22.2806 2.97696 23.071 3.06477 23.3388C3.55097 24.8216 4.27096 25.4177 4.84815 25.6383C5.4519 25.8691 6.19009 25.8014 6.90939 25.4172C7.63283 25.0307 8.21387 24.3835 8.47077 23.6708C8.71296 22.999 8.68507 22.2361 8.15027 21.4479C8.11137 21.3905 8.03893 21.3231 7.88141 21.2703ZM9.83768 20.1515C10.8818 21.6904 11.125 22.6404 10.6047 24.0835C10.0992 25.4859 9.35415 26.8427 8.07854 27.524C6.79879 28.2076 5.302 28.1077 3.77485 27.524C2.22113 26.9302 1.09458 25.558 0.6111 24.0835C0.223011 22.8999 0.904962 21.5688 1.8304 20.643C3.6473 18.8255 4.0915 18.854 5.79579 18.677C7.46656 18.5036 8.87116 18.727 9.83768 20.1515Z" fill="#FD6480"/>
</svg>
